<svg width="92" height="92" viewBox="0 0 92 92" fill="none" xmlns="http://www.w3.org/2000/svg">
<path d="M19.1665 38.3333C14.9498 38.3333 11.4998 41.7833 11.4998 46C11.4998 50.2167 14.9498 53.6667 19.1665 53.6667C23.3831 53.6667 26.8331 50.2167 26.8331 46C26.8331 41.7833 23.3831 38.3333 19.1665 38.3333ZM72.8331 38.3333C68.6165 38.3333 65.1665 41.7833 65.1665 46C65.1665 50.2167 68.6165 53.6667 72.8331 53.6667C77.0498 53.6667 80.4998 50.2167 80.4998 46C80.4998 41.7833 77.0498 38.3333 72.8331 38.3333ZM45.9998 38.3333C41.7831 38.3333 38.3331 41.7833 38.3331 46C38.3331 50.2167 41.7831 53.6667 45.9998 53.6667C50.2165 53.6667 53.6665 50.2167 53.6665 46C53.6665 41.7833 50.2165 38.3333 45.9998 38.3333Z" fill="black"/>
</svg>
