<svg width="34" height="31" viewBox="0 0 34 31" fill="none" xmlns="http://www.w3.org/2000/svg">
<g clip-path="url(#clip0_123_141)">
<path d="M12.7502 28.1287C13.5326 28.1287 14.1668 27.5563 14.1668 26.8501C14.1668 26.144 13.5326 25.5715 12.7502 25.5715C11.9678 25.5715 11.3335 26.144 11.3335 26.8501C11.3335 27.5563 11.9678 28.1287 12.7502 28.1287Z" stroke="black" stroke-width="2" stroke-linecap="round" stroke-linejoin="round"/>
<path d="M28.3332 28.1287C29.1156 28.1287 29.7499 27.5563 29.7499 26.8501C29.7499 26.144 29.1156 25.5715 28.3332 25.5715C27.5508 25.5715 26.9166 26.144 26.9166 26.8501C26.9166 27.5563 27.5508 28.1287 28.3332 28.1287Z" stroke="black" stroke-width="2" stroke-linecap="round" stroke-linejoin="round"/>
<path d="M1.41669 1.2786H7.08334L10.88 18.3987C11.0095 18.9874 11.3644 19.5162 11.8823 19.8925C12.4003 20.2688 13.0485 20.4688 13.7133 20.4573H27.4833C28.1481 20.4688 28.7963 20.2688 29.3142 19.8925C29.8322 19.5162 30.187 18.9874 30.3166 18.3987L32.5833 7.67148H8.5" stroke="black" stroke-width="2" stroke-linecap="round" stroke-linejoin="round"/>
</g>
<defs>
<clipPath id="clip0_123_141">
<rect width="33.7377" height="30.4492" fill="white" transform="scale(1.00777)"/>
</clipPath>
</defs>
</svg>
