<svg width="34" height="33" viewBox="0 0 34 33" fill="none" xmlns="http://www.w3.org/2000/svg">
<g clip-path="url(#clip0_123_147)">
<path d="M8.49984 26.125V13.75C8.49984 11.562 9.39537 9.46354 10.9894 7.91637C12.5835 6.36919 14.7455 5.5 16.9998 5.5C19.2542 5.5 21.4162 6.36919 23.0102 7.91637C24.6043 9.46354 25.4998 11.562 25.4998 13.75V26.125M8.49984 26.125H25.4998M8.49984 26.125H5.6665M25.4998 26.125H28.3332M15.5832 30.25H18.4165" stroke="black" stroke-width="2" stroke-linecap="round" stroke-linejoin="round"/>
<path d="M16.9997 5.5C17.7821 5.5 18.4163 4.88439 18.4163 4.125C18.4163 3.36561 17.7821 2.75 16.9997 2.75C16.2173 2.75 15.583 3.36561 15.583 4.125C15.583 4.88439 16.2173 5.5 16.9997 5.5Z" stroke="black" stroke-width="2"/>
</g>
<defs>
<clipPath id="clip0_123_147">
<rect width="34" height="33" fill="white"/>
</clipPath>
</defs>
</svg>
