<svg width="29" height="29" viewBox="0 0 29 29" fill="none" xmlns="http://www.w3.org/2000/svg">
<path d="M24.4688 5.4375H4.53128C4.05058 5.4375 3.58956 5.62846 3.24965 5.96837C2.90974 6.30828 2.71878 6.7693 2.71878 7.25V25.375C2.71673 25.7205 2.8144 26.0592 3.00006 26.3506C3.18572 26.6419 3.45149 26.8735 3.7655 27.0176C4.00542 27.1291 4.26672 27.1871 4.53128 27.1875C4.95675 27.1864 5.36809 27.0347 5.69241 26.7593L5.70261 26.7514L9.40238 23.5625H24.4688C24.9495 23.5625 25.4105 23.3715 25.7504 23.0316C26.0903 22.6917 26.2813 22.2307 26.2813 21.75V7.25C26.2813 6.7693 26.0903 6.30828 25.7504 5.96837C25.4105 5.62846 24.9495 5.4375 24.4688 5.4375ZM24.4688 21.75H9.06253C8.84493 21.7501 8.63463 21.8285 8.47007 21.9709L4.53128 25.375V7.25H24.4688V21.75ZM9.96878 12.6875C9.96878 12.4471 10.0643 12.2166 10.2342 12.0467C10.4042 11.8767 10.6347 11.7812 10.875 11.7812H18.125C18.3654 11.7812 18.5959 11.8767 18.7658 12.0467C18.9358 12.2166 19.0313 12.4471 19.0313 12.6875C19.0313 12.9279 18.9358 13.1584 18.7658 13.3283C18.5959 13.4983 18.3654 13.5938 18.125 13.5938H10.875C10.6347 13.5938 10.4042 13.4983 10.2342 13.3283C10.0643 13.1584 9.96878 12.9279 9.96878 12.6875ZM9.96878 16.3125C9.96878 16.0721 10.0643 15.8416 10.2342 15.6717C10.4042 15.5017 10.6347 15.4062 10.875 15.4062H18.125C18.3654 15.4062 18.5959 15.5017 18.7658 15.6717C18.9358 15.8416 19.0313 16.0721 19.0313 16.3125C19.0313 16.5529 18.9358 16.7834 18.7658 16.9533C18.5959 17.1233 18.3654 17.2188 18.125 17.2188H10.875C10.6347 17.2188 10.4042 17.1233 10.2342 16.9533C10.0643 16.7834 9.96878 16.5529 9.96878 16.3125Z" fill="black"/>
</svg>
